<?xml version="1.0" encoding="utf-8"?>
<svg version="1.1" xmlns="http://www.w3.org/2000/svg" width="1221" height="544">
  <path d="M0 0 C8.52877504 3.8434394 12.63225342 12.70019851 16 21 C19.61536181 33.00916696 20.16372514 44.72446021 20.125 57.1875 C20.12886719 58.41275391 20.13273438 59.63800781 20.13671875 60.90039062 C20.12783641 69.32528779 19.68036554 77.60342533 19 86 C26.59 89.63 34.18 93.26 42 97 C41.67 94.793125 41.34 92.58625 41 90.3125 C39.69178082 81.56378425 39.69178082 81.56378425 40 78 C42 76 42 76 45.44140625 75.76953125 C46.81517304 75.77352089 48.18894114 75.78826823 49.5625 75.8125 C50.26052734 75.81314453 50.95855469 75.81378906 51.67773438 75.81445312 C56.85968842 75.85968842 56.85968842 75.85968842 58 77 C58.12689057 79.80339635 58.1852093 82.57117843 58.1875 85.375 C58.19974609 86.15617187 58.21199219 86.93734375 58.22460938 87.7421875 C58.23471426 91.67635523 58.22938367 93.65592449 56 97 C55.92094936 99.33199388 55.91201231 101.66832622 56 104 C66.70144893 110.33663613 77.69755944 116.05818593 88.74609375 121.76171875 C93.33530973 124.1311774 97.9032733 126.53648203 102.46020508 128.96728516 C110.9402696 133.48624906 119.53026653 137.71266904 128.23730469 141.77807617 C129.49655762 142.36745972 129.49655762 142.36745972 130.78125 142.96875 C131.52439453 143.31357422 132.26753906 143.65839844 133.03320312 144.01367188 C135 145 135 145 138 147 C138.6159668 149.12304687 138.6159668 149.12304687 138.94921875 151.71875 C139.07490234 152.65074219 139.20058594 153.58273438 139.33007812 154.54296875 C139.44802734 155.51878906 139.56597656 156.49460938 139.6875 157.5 C139.81705078 158.47582031 139.94660156 159.45164063 140.08007812 160.45703125 C141 167.49516369 141 167.49516369 141 170 C129.1722712 168.72385752 117.36560016 167.32279631 105.56555367 165.81251526 C102.79087142 165.45748566 100.01594363 165.10443023 97.24095154 164.75183105 C89.36529516 163.75076094 81.49009688 162.74610706 73.61499023 161.74072266 C68.75741572 161.12071029 63.89958467 160.50273895 59.04160881 159.88587952 C57.21788467 159.65387973 55.39425796 159.42111243 53.57074165 159.18748474 C50.9999545 158.85811764 48.42884489 158.53137138 45.85766602 158.20507812 C45.14074081 158.11255264 44.42381561 158.02002716 43.68516541 157.92469788 C34.8029665 156.80353392 25.90933946 155.93782521 17 155 C17 218.03 17 281.06 17 346 C16.34 346.33 15.68 346.66 15 347 C14.86142578 347.63180176 14.72285156 348.26360352 14.58007812 348.91455078 C13.84715089 351.54951058 13.03732107 351.99460818 10.71875 353.3671875 C10.04537598 353.77533691 9.37200195 354.18348633 8.67822266 354.60400391 C7.60000244 355.23314697 7.60000244 355.23314697 6.5 355.875 C5.03836928 356.75405673 3.57742751 357.63426003 2.1171875 358.515625 C1.40916992 358.93908203 0.70115234 359.36253906 -0.02832031 359.79882812 C-3.23764204 361.75398698 -6.3191652 363.88713862 -9.3984375 366.0390625 C-11 367 -11 367 -13 367 C-12.99738159 366.0746344 -12.99476318 365.1492688 -12.99206543 364.19586182 C-12.93240935 340.58272086 -13.03205706 316.97174123 -13.21875 293.359375 C-13.22422726 292.66356638 -13.22970451 291.96775776 -13.23534775 291.25086403 C-13.31497523 281.14938945 -13.39794006 271.04794311 -13.48177338 260.94650269 C-13.58366498 248.6674764 -13.68426845 236.38844114 -13.78125 224.109375 C-13.78672726 223.41927023 -13.79220451 222.72916546 -13.79784775 222.01814842 C-13.97470564 199.67847042 -14.0725028 177.34034305 -14 155 C-44.84049506 158.27119889 -75.61962091 161.88912299 -106.375 165.875 C-107.16582222 165.97748425 -107.95664444 166.07996849 -108.77143097 166.18555832 C-118.51533762 167.4490345 -128.25817908 168.72053799 -138 170 C-137.84442896 167.59562842 -137.68759175 165.19135059 -137.5300293 162.78710938 C-137.48635979 162.11017029 -137.44269028 161.4332312 -137.39769745 160.73577881 C-137.27182755 158.82340005 -137.13616488 156.91167332 -137 155 C-136.9116967 153.72751404 -136.9116967 153.72751404 -136.8216095 152.42932129 C-136.36714513 149.38569326 -135.5169073 147.42729919 -133.13818359 145.4609375 C-130.71425459 143.96330844 -128.26283623 142.71777981 -125.6875 141.5 C-124.83220703 141.05914062 -123.97691406 140.61828125 -123.09570312 140.1640625 C-118.82075832 138.03155711 -115.85117804 136.73895966 -111 137 C-110.67 136.01 -110.34 135.02 -110 134 C-107.80126953 132.62475586 -107.80126953 132.62475586 -104.8828125 131.21484375 C-103.80974854 130.68898682 -102.73668457 130.16312988 -101.63110352 129.62133789 C-100.47408936 129.06567139 -99.3170752 128.51000488 -98.125 127.9375 C-95.74010896 126.76981368 -93.35599964 125.60052946 -90.97265625 124.4296875 C-89.78945801 123.85057617 -88.60625977 123.27146484 -87.38720703 122.67480469 C-79.84125071 118.94370621 -72.42208078 114.97016541 -65 111 C-64.39510742 110.6788623 -63.79021484 110.35772461 -63.16699219 110.02685547 C-57.19689072 107.05518284 -57.19689072 107.05518284 -52 103 C-52.32971479 99.70285207 -52.6226839 98.3773161 -55 96 C-55.24291992 94.04467773 -55.24291992 94.04467773 -55.23046875 91.68359375 C-55.22853516 90.83732422 -55.22660156 89.99105469 -55.22460938 89.11914062 C-55.21236328 88.23419922 -55.20011719 87.34925781 -55.1875 86.4375 C-55.1865332 85.10428711 -55.1865332 85.10428711 -55.18554688 83.74414062 C-55.14021097 77.14021097 -55.14021097 77.14021097 -54 76 C-51.69006618 75.87442838 -49.37581464 75.82424271 -47.0625 75.8125 C-45.79535156 75.79832031 -44.52820313 75.78414063 -43.22265625 75.76953125 C-40 76 -40 76 -38 78 C-37.4118025 84.01157788 -37.94590129 90.07069473 -39 96 C-30.64696852 93.35268097 -23.43301238 89.61806703 -16 85 C-16.10828125 83.61554688 -16.10828125 83.61554688 -16.21875 82.203125 C-17.74981793 60.68311465 -19.18284176 36.47166461 -11 16 C-10.01 15.67 -9.02 15.34 -8 15 C-7.26922707 13.22467415 -7.26922707 13.22467415 -6.9375 11.125 C-6.3349444 8.01466536 -5.84080823 6.76121234 -4 4 C-3.34 4 -2.68 4 -2 4 C-1.34 2.68 -0.68 1.36 0 0 Z " fill="#38A069" transform="translate(243,78)"/>
  <path d="M0 0 C12.64890042 -0.06981521 25.29775424 -0.1229704 37.94680882 -0.15543652 C43.82162391 -0.17102638 49.69630622 -0.19214142 55.57104492 -0.22631836 C61.25098394 -0.25915151 66.93079601 -0.27690311 72.61082268 -0.28463173 C74.76711968 -0.29013253 76.92341051 -0.30087296 79.07965279 -0.31719017 C102.46152677 -0.48693442 123.72259448 2.48187659 141.6875 19.0625 C153.21077344 31.22710464 157.98026898 46.4259474 158 63 C156.88794778 79.66056421 150.48039745 95.12166254 138.375 106.75 C131.68253761 112.43599905 122.86863865 118.80198502 114 120 C116.06256004 125.25715129 118.57451349 129.59839585 121.84765625 134.18359375 C122.8372946 135.59665779 123.8256809 137.0105993 124.81298828 138.42529297 C125.33258118 139.16785339 125.85217407 139.91041382 126.38751221 140.67547607 C129.17980602 144.70078021 131.90013248 148.77393244 134.62109375 152.84765625 C135.17938873 153.68332123 135.73768372 154.51898621 136.31289673 155.37997437 C137.44864363 157.08132245 138.58384498 158.78303485 139.71850586 160.48510742 C141.4576187 163.09266519 143.20043964 165.69772008 144.94335938 168.30273438 C146.06532928 169.98422481 147.18708219 171.66586007 148.30859375 173.34765625 C148.82215927 174.11441177 149.33572479 174.8811673 149.86485291 175.67115784 C152.76157865 180.02543931 155.45966021 184.42814274 158 189 C152.77211254 189.3737491 147.55211564 189.644126 142.31396484 189.82397461 C140.53784774 189.89896049 138.76264326 190.00101432 136.98974609 190.1315918 C131.27137755 190.54188554 125.48525429 190.93878412 120 189 C115.91498826 185.33970978 113.77858414 181.25499049 111.31091309 176.41323853 C108.8170596 171.82234431 105.75086098 167.59920921 102.78515625 163.3046875 C101.50770327 161.41806147 100.23233124 159.53002482 98.95898438 157.640625 C96.9955931 154.73497404 95.03179436 151.82960089 93.06713867 148.92480469 C91.13866082 146.07304106 89.2117896 143.22019747 87.28515625 140.3671875 C86.69767105 139.49947723 86.11018585 138.63176697 85.50489807 137.73776245 C84.68275063 136.51961349 84.68275063 136.51961349 83.84399414 135.27685547 C83.07260353 134.15536354 83.07260353 134.15536354 82.28562927 133.01121521 C81 131 81 131 79.74072266 127.94506836 C77.5578489 125.50594421 76.72965971 125.63531219 73.52856445 125.43237305 C71.63995193 125.43362263 69.75121888 125.46121787 67.86328125 125.51171875 C66.98168335 125.51675415 66.10008545 125.52178955 65.19177246 125.52697754 C61.89835087 125.55313937 58.60539282 125.62294692 55.3125 125.6875 C47.949375 125.790625 40.58625 125.89375 33 126 C33 146.79 33 167.58 33 189 C22.11 189 11.22 189 0 189 C-1.04968714 169.52658369 -1.14887229 150.11178672 -1.1343255 130.6174314 C-1.13175754 126.08876982 -1.13415075 121.56011005 -1.13571167 117.03144836 C-1.1375167 109.45642729 -1.13516716 101.88141606 -1.13037109 94.30639648 C-1.12489021 85.54851846 -1.12672528 76.79066357 -1.1321975 68.03278607 C-1.13672725 60.47991 -1.1373811 52.92704091 -1.13475883 45.37416393 C-1.13320058 40.87630222 -1.13299078 36.37845144 -1.13629532 31.88059044 C-1.13917338 27.67215057 -1.13719964 23.46374092 -1.13140106 19.25530434 C-1.13007489 17.70968298 -1.13046518 16.16405909 -1.13266373 14.61843872 C-1.13537974 12.51619545 -1.13198907 10.4140503 -1.12698364 8.31181335 C-1.12660662 7.13413737 -1.12622959 5.95646139 -1.12584114 4.74309826 C-1 2 -1 2 0 0 Z M32 27 C31.97664778 34.33773432 31.95896989 41.6754604 31.94818783 49.0132246 C31.9430084 52.42183448 31.93600259 55.83041861 31.92456055 59.23901367 C31.91143796 63.17366204 31.90673103 67.10830062 31.90234375 71.04296875 C31.89718246 72.24455124 31.89202118 73.44613373 31.88670349 74.68412781 C31.88619463 82.5007048 32.28774323 90.2161556 33 98 C40.48532285 98.06998645 47.97061112 98.1230553 55.4561882 98.15543652 C58.93331334 98.17099005 62.41021211 98.19203537 65.88720703 98.22631836 C69.89878317 98.26561778 73.91012731 98.27979421 77.921875 98.29296875 C79.15049255 98.30845261 80.37911011 98.32393646 81.6449585 98.33988953 C91.35621737 98.34175386 101.22454102 97.35844153 109.625 92.0625 C110.42164063 91.57910156 111.21828125 91.09570312 112.0390625 90.59765625 C114.14302246 88.88347373 114.99739344 87.49573569 116 85 C116.66 85 117.32 85 118 85 C118.81752303 83.41925436 119.62881997 81.83528777 120.4375 80.25 C120.88996094 79.36828125 121.34242188 78.4865625 121.80859375 77.578125 C124.28618399 72.21678219 124.24855879 67.13114987 124.3125 61.3125 C124.34150391 60.45205078 124.37050781 59.59160156 124.40039062 58.70507812 C124.492625 49.29007697 121.16010267 42.51982927 114.77734375 35.71875 C105.43121547 26.68073584 94.13401283 26.56484344 81.8046875 26.70703125 C80.36166834 26.71263911 78.91864341 26.71690357 77.47561646 26.71989441 C73.71085333 26.73124978 69.94644746 26.76063433 66.18182373 26.79400635 C62.32699412 26.82491026 58.47210576 26.83844279 54.6171875 26.85351562 C47.07796361 26.88551501 39.53903221 26.93659564 32 27 Z " fill="#38A069" transform="translate(504,224)"/>
  <path d="M0 0 C23.87176158 -0.08783773 47.73478439 0.15443937 71.60424805 0.46356201 C76.40606933 0.52531745 81.20791866 0.5848124 86.00976562 0.64453125 C95.33987187 0.76088276 104.66994215 0.87983072 114 1 C114 9.91 114 18.82 114 28 C86.28 28 58.56 28 30 28 C30 47.14 30 66.28 30 86 C35.04152344 85.98839844 40.08304688 85.97679687 45.27734375 85.96484375 C48.4628919 85.95973687 51.64843504 85.95492309 54.83398438 85.95117188 C59.89511152 85.94518389 64.95622064 85.93808479 70.01733398 85.92456055 C74.09568543 85.91373009 78.17401757 85.90772283 82.25238228 85.90512276 C83.81177639 85.90326879 85.3711694 85.89964873 86.93055534 85.89426994 C89.10729162 85.88705738 91.28394714 85.88600915 93.46069336 85.88647461 C95.32267616 85.88314369 95.32267616 85.88314369 97.22227478 85.87974548 C100 86 100 86 101 87 C101.08726223 88.78071246 101.10699041 90.5648314 101.09765625 92.34765625 C101.09282227 93.96704102 101.09282227 93.96704102 101.08789062 95.61914062 C101.07532227 97.32360352 101.07532227 97.32360352 101.0625 99.0625 C101.05798828 100.20267578 101.05347656 101.34285156 101.04882812 102.51757812 C101.03699747 105.34510351 101.0205141 108.1725264 101 111 C98.12255732 112.43872134 95.65434078 112.11937153 92.43896484 112.11352539 C91.75478296 112.11364593 91.07060108 112.11376646 90.36568642 112.11389065 C88.14740389 112.11314329 85.92920502 112.10552309 83.7109375 112.09765625 C82.34285523 112.09618628 80.9747724 112.09516591 79.60668945 112.09460449 C74.52945107 112.08935795 69.45222472 112.07539679 64.375 112.0625 C53.03125 112.041875 41.6875 112.02125 30 112 C30 138.4 30 164.8 30 192 C26.70265354 193.09911549 24.27041255 193.1139456 20.80078125 193.09765625 C19.59228516 193.09443359 18.38378906 193.09121094 17.13867188 193.08789062 C15.87603516 193.07951172 14.61339844 193.07113281 13.3125 193.0625 C11.40114258 193.05573242 11.40114258 193.05573242 9.45117188 193.04882812 C6.30073436 193.03702873 3.15039051 193.02056597 0 193 C-1.50407515 189.99184969 -1.13708928 186.8966727 -1.12698364 183.59777832 C-1.12854363 182.82568921 -1.13010362 182.05360009 -1.13171089 181.25811434 C-1.13571662 178.65708316 -1.13253288 176.05610979 -1.12939453 173.45507812 C-1.13074876 171.59598252 -1.13252882 169.73688718 -1.13470459 167.87779236 C-1.13927634 162.81801385 -1.13749042 157.75825567 -1.1343255 152.69847679 C-1.13180058 147.41295694 -1.13413981 142.12743887 -1.13571167 136.84191895 C-1.13753298 127.96443366 -1.13512807 119.08695668 -1.13037109 110.20947266 C-1.12492855 99.93367042 -1.12669123 89.65788803 -1.1321975 79.38208628 C-1.13672973 70.57274407 -1.13737863 61.76340784 -1.13475883 52.95406485 C-1.13319667 47.68682626 -1.13300064 42.419597 -1.13629532 37.15235901 C-1.13917563 32.20139699 -1.13719537 27.25046065 -1.13140106 22.29950142 C-1.13007433 20.47815048 -1.13046612 18.6567974 -1.13266373 16.83544731 C-1.1353786 14.35767587 -1.13198992 11.87998775 -1.12698364 9.40222168 C-1.12921436 8.67402237 -1.13144509 7.94582307 -1.13374341 7.19555712 C-1.11415008 2.22830016 -1.11415008 2.22830016 0 0 Z " fill="#3B78C8" transform="translate(721,222)"/>
  <path d="M0 0 C23.78877436 -0.20638953 23.78877436 -0.20638953 34 1 C34 1.99 34 2.98 34 4 C34.66 4 35.32 4 36 4 C36.48726562 4.8765625 36.97453125 5.753125 37.4765625 6.65625 C43.88258939 18.13416627 50.5032459 29.48331516 57.14306641 40.82714844 C60.22382349 46.0910873 63.30024455 51.3575536 66.375 56.625 C66.95741455 57.62273437 67.5398291 58.62046875 68.13989258 59.6484375 C72.47024031 67.07437269 76.76057917 74.52176699 81 82 C83.78317617 78.65754155 86.10423703 75.30814425 88.25 71.52734375 C88.85247559 70.47264893 89.45495117 69.4179541 90.07568359 68.33129883 C90.71070801 67.21134521 91.34573242 66.0913916 92 64.9375 C93.34362288 62.58436984 94.69099091 60.23339635 96.0390625 57.8828125 C96.37507477 57.29633438 96.71108704 56.70985626 97.05728149 56.10560608 C101.48000257 48.40001629 106.0738655 40.79841266 110.67285156 33.19726562 C112.33180531 30.45065347 113.97888513 27.69704433 115.62524414 24.94287109 C118.8741896 19.51127181 122.14147209 14.09066377 125.4375 8.6875 C126.07558594 7.63949219 126.71367188 6.59148437 127.37109375 5.51171875 C129 3 129 3 131 1 C133.71801758 0.68115234 133.71801758 0.68115234 137.14453125 0.5859375 C138.99594727 0.52792969 138.99594727 0.52792969 140.88476562 0.46875 C142.82899414 0.42234375 142.82899414 0.42234375 144.8125 0.375 C146.09705078 0.33632812 147.38160156 0.29765625 148.70507812 0.2578125 C153.80452884 0.10915595 158.89812016 -0.02263531 164 0 C164 0.99 164 1.98 164 3 C163.34 3 162.68 3 162 3 C161.78085938 3.81082031 161.56171875 4.62164062 161.3359375 5.45703125 C159.64176414 9.95005825 157.23563114 13.67571999 154.625 17.6875 C153.53368367 19.38921359 152.4425427 21.09103964 151.3515625 22.79296875 C150.7937207 23.65841309 150.23587891 24.52385742 149.66113281 25.41552734 C147.08227151 29.42784741 144.54204159 33.46429388 142 37.5 C140.99632069 39.08998703 139.99241401 40.67983055 138.98828125 42.26953125 C138.49279785 43.05408691 137.99731445 43.83864258 137.48681641 44.64697266 C136.02736716 46.95668889 134.56660708 49.26557074 133.10546875 51.57421875 C132.13269875 53.11190721 131.1600432 54.64966809 130.1875 56.1875 C129.70458496 56.9511084 129.22166992 57.7147168 128.72412109 58.50146484 C125.84263894 63.06404586 122.97627467 67.63575354 120.12109375 72.21484375 C119.45762939 73.27872314 118.79416504 74.34260254 118.1105957 75.4387207 C116.82266877 77.50545309 115.53597243 79.57295305 114.25073242 81.64135742 C111.54402184 85.98563705 108.81694559 90.29667176 105.9296875 94.5234375 C105.47995071 95.21270325 105.03021393 95.90196899 104.56684875 96.61212158 C103.55392722 98.1558146 102.50937921 99.6794083 101.42845154 101.17626953 C95.67345332 110.07485612 96.15559547 118.76002934 96.23046875 128.9765625 C96.22174331 130.79692061 96.21024769 132.61726734 96.19612122 134.43759155 C96.1659044 139.19497052 96.17012326 143.95167238 96.18273926 148.70910645 C96.19222222 154.51730043 96.16374413 160.32540982 96.13767719 166.13353539 C96.11766884 170.64467568 96.10441685 175.15547 96.11186218 179.66665649 C96.11138634 180.90243439 96.11138634 180.90243439 96.11090088 182.16317749 C96.11038421 183.70677052 96.1136345 185.25037089 96.12123108 186.79394531 C96.11280168 191.88719832 96.11280168 191.88719832 95 193 C92.85441173 193.08775605 90.70595579 193.10695219 88.55859375 193.09765625 C87.25341797 193.09443359 85.94824219 193.09121094 84.60351562 193.08789062 C83.2148431 193.07953401 81.82617123 193.07106905 80.4375 193.0625 C79.04492344 193.05748666 77.65234519 193.05292347 76.25976562 193.04882812 C72.8398013 193.03699434 69.41992156 193.0205088 66 193 C64.49833631 189.99667262 64.91660715 186.92832715 64.96923828 183.63891602 C64.9853536 182.0629567 65.00104994 180.48699307 65.01638794 178.911026 C65.02592625 178.07196276 65.03546455 177.23289951 65.0452919 176.36841011 C65.0970683 170.95808399 65.09108909 165.54743697 65.09665108 160.13690281 C65.10481011 155.40069423 65.13200252 150.66614515 65.20214844 145.93041992 C66.35374496 117.59622484 66.35374496 117.59622484 54.42346191 92.79336548 C52.17237681 89.95730905 50.43550794 86.85216299 48.62890625 83.72265625 C47.27536196 81.50143032 45.91989072 79.28137747 44.5625 77.0625 C43.08494319 74.63992841 41.60886715 72.21645581 40.1328125 69.79296875 C39.59517525 68.91085724 39.59517525 68.91085724 39.04667664 68.01092529 C35.98330004 62.98161055 32.95610723 57.93125853 29.9375 52.875 C24.0017211 42.94583508 17.93322611 33.09893133 11.859375 23.25390625 C11.23482422 22.23699707 10.61027344 21.22008789 9.96679688 20.17236328 C8.57284865 17.92398155 7.1649627 15.69034805 5.73632812 13.46435547 C5.3652594 12.87943832 4.99419067 12.29452118 4.61187744 11.69187927 C3.57292511 10.05511431 2.52547438 8.42375283 1.47753906 6.79272461 C0 4 0 4 0 0 Z " fill="#3B78C8" transform="translate(957,222)"/>
  <path d="M0 0 C1.20398438 -0.00128906 2.40796875 -0.00257813 3.6484375 -0.00390625 C5.535625 0.00189453 5.535625 0.00189453 7.4609375 0.0078125 C9.35972656 0.00201172 9.35972656 0.00201172 11.296875 -0.00390625 C12.49828125 -0.00261719 13.6996875 -0.00132812 14.9375 0 C16.04432129 0.00112793 17.15114258 0.00225586 18.29150391 0.00341797 C20.8359375 0.1328125 20.8359375 0.1328125 21.8359375 1.1328125 C21.93284157 3.25908048 21.95780572 5.38863069 21.95619202 7.5171051 C21.95704644 8.19174567 21.95790087 8.86638623 21.95878118 9.56147045 C21.96043789 11.83861412 21.95491154 14.1156853 21.94946289 16.39282227 C21.94918103 18.01856484 21.94933872 19.64430755 21.9499054 21.27005005 C21.95019343 25.69754663 21.94429577 30.12501637 21.93733144 34.55250669 C21.93109886 39.17432092 21.93049418 43.7961357 21.92930603 48.41795349 C21.92619243 57.17629487 21.91797865 65.93462383 21.90795654 74.69295973 C21.89471131 86.52367132 21.88929573 98.35438628 21.88345432 110.18510342 C21.87403878 128.83434909 21.85412006 147.48356855 21.8359375 166.1328125 C48.8959375 166.1328125 75.9559375 166.1328125 103.8359375 166.1328125 C103.8359375 174.7128125 103.8359375 183.2928125 103.8359375 192.1328125 C101.47274013 193.31441118 100.06160277 193.25856644 97.4261322 193.25979614 C96.49927109 193.26261597 95.57240997 193.26543579 94.61746216 193.26834106 C93.59764252 193.26631683 92.57782288 193.2642926 91.52709961 193.26220703 C89.91973183 193.26483551 89.91973183 193.26483551 88.27989197 193.26751709 C84.72433877 193.27193215 81.16883498 193.26899902 77.61328125 193.265625 C75.15230805 193.26629809 72.69133491 193.26726815 70.23036194 193.26852417 C65.06787484 193.27000063 59.90540502 193.26784804 54.74291992 193.26318359 C48.10896653 193.25748336 41.47505356 193.26076751 34.84110165 193.26675606 C29.75838412 193.2703605 24.67567626 193.26922367 19.59295845 193.26662827 C17.14600177 193.26595883 14.69904422 193.266788 12.25208855 193.26910782 C8.83982881 193.27163276 5.42763561 193.26779613 2.01538086 193.26220703 C0.48261505 193.26524338 0.48261505 193.26524338 -1.08111572 193.26834106 C-2.46717766 193.26411133 -2.46717766 193.26411133 -3.88124084 193.25979614 C-4.68889924 193.25941912 -5.49655764 193.25904209 -6.32869053 193.25865364 C-8.1640625 193.1328125 -8.1640625 193.1328125 -9.1640625 192.1328125 C-9.26176945 189.66649979 -9.29402348 187.22822252 -9.28431702 184.76145935 C-9.28517144 183.98064642 -9.28602587 183.1998335 -9.28690618 182.39535958 C-9.28856336 179.7589116 -9.28303576 177.12252618 -9.27758789 174.48608398 C-9.27730604 172.60418703 -9.2774637 170.72228996 -9.2780304 168.84039307 C-9.27831847 163.71457315 -9.27242017 158.58877642 -9.26545644 153.46296191 C-9.25922452 148.11243986 -9.25861923 142.76191733 -9.25743103 137.41139221 C-9.25431724 127.27182892 -9.2461032 117.13227636 -9.23608154 106.9927178 C-9.22492189 95.45240776 -9.21941033 83.91209722 -9.21438611 72.37178314 C-9.20392063 48.62545364 -9.18632026 24.87913367 -9.1640625 1.1328125 C-5.88557349 0.03998283 -3.44965934 0.0035083 0 0 Z " fill="#3B78C8" transform="translate(872.1640625,221.8671875)"/>
  <path d="M0 0 C11.22 0 22.44 0 34 0 C34 62.37 34 124.74 34 189 C22.78 189 11.56 189 0 189 C0 126.63 0 64.26 0 0 Z " fill="#38A069" transform="translate(402,224)"/>
  <path d="M0 0 C6.09217769 3.62049417 10.38218757 8.31312588 12.67578125 15.09375 C13.61429484 21.70286151 13.12498283 26.91008039 9.171875 32.375 C5.3888478 36.72103647 1.03411122 40.64527736 -4.83984375 41.4296875 C-12.21481298 41.5350442 -17.63571802 40.63438211 -23.078125 35.41015625 C-28.3416412 29.51248148 -29.86024042 25.15847152 -29.6953125 17.203125 C-29.01185741 11.47649074 -26.81816929 7.11705228 -22.31640625 3.46484375 C-15.59851372 -0.88567337 -7.77346244 -3.03099712 0 0 Z " fill="#37A069" transform="translate(428.32421875,152.90625)"/>
  <path d="M0 0 C3 1 3 1 3 1 Z " fill="#FFFFFF" transform="translate(745,6)"/>
  <path d="M0 0 C3 1 3 1 3 1 Z " fill="#FFFFFF" transform="translate(473,6)"/>
  <path d="M0 0 C3 1 3 1 3 1 Z " fill="#FFFFFF" transform="translate(735,5)"/>
  <path d="M0 0 C3 1 3 1 3 1 Z " fill="#FFFFFF" transform="translate(483,5)"/>
  <path d="M0 0 C2 1 2 1 2 1 Z " fill="#FFFFFF" transform="translate(764,535)"/>
  <path d="M0 0 C2 1 2 1 2 1 Z " fill="#FFFFFF" transform="translate(772,534)"/>
  <path d="M0 0 C2 1 2 1 2 1 Z " fill="#FFFFFF" transform="translate(780,533)"/>
  <path d="M0 0 C2 1 2 1 2 1 Z " fill="#FFFFFF" transform="translate(788,532)"/>
  <path d="M0 0 C2 1 2 1 2 1 Z " fill="#FFFFFF" transform="translate(795,531)"/>
  <path d="M0 0 C2 1 2 1 2 1 Z " fill="#FFFFFF" transform="translate(802,530)"/>
  <path d="M0 0 C2 1 2 1 2 1 Z " fill="#FFFFFF" transform="translate(815,528)"/>
  <path d="M0 0 C2 1 2 1 2 1 Z " fill="#FFFFFF" transform="translate(821,527)"/>
  <path d="M0 0 C2 1 2 1 2 1 Z " fill="#FFFFFF" transform="translate(827,526)"/>
  <path d="M0 0 C2 1 2 1 2 1 Z " fill="#FFFFFF" transform="translate(833,525)"/>
  <path d="M0 0 C2 1 2 1 2 1 Z " fill="#FFFFFF" transform="translate(844,523)"/>
  <path d="M0 0 C2 1 2 1 2 1 Z " fill="#FFFFFF" transform="translate(874,517)"/>
  <path d="M0 0 C2 1 2 1 2 1 Z " fill="#FFFFFF" transform="translate(892,513)"/>
  <path d="M0 0 C2 1 2 1 2 1 Z " fill="#FFFFFF" transform="translate(924,505)"/>
  <path d="M0 0 C2 1 2 1 2 1 Z " fill="#FFFFFF" transform="translate(295,505)"/>
  <path d="" fill="#FFFFFF" transform="translate(0,0)"/>
  <path d="" fill="#FFFFFF" transform="translate(0,0)"/>
  <path d="" fill="#FFFFFF" transform="translate(0,0)"/>
  <path d="" fill="#FFFFFF" transform="translate(0,0)"/>
  <path d="" fill="#FFFFFF" transform="translate(0,0)"/>
  <path d="" fill="#FFFFFF" transform="translate(0,0)"/>
  <path d="" fill="#FFFFFF" transform="translate(0,0)"/>
  <path d="" fill="#FFFFFF" transform="translate(0,0)"/>
  <path d="M0 0 C2 1 2 1 2 1 Z " fill="#FFFFFF" transform="translate(924,38)"/>
  <path d="M0 0 C2 1 2 1 2 1 Z " fill="#FFFFFF" transform="translate(295,38)"/>
  <path d="M0 0 C2 1 2 1 2 1 Z " fill="#FFFFFF" transform="translate(892,30)"/>
  <path d="M0 0 C2 1 2 1 2 1 Z " fill="#FFFFFF" transform="translate(327,30)"/>
  <path d="M0 0 C2 1 2 1 2 1 Z " fill="#FFFFFF" transform="translate(874,26)"/>
  <path d="M0 0 C2 1 2 1 2 1 Z " fill="#FFFFFF" transform="translate(345,26)"/>
  <path d="M0 0 C2 1 2 1 2 1 Z " fill="#FFFFFF" transform="translate(844,20)"/>
  <path d="M0 0 C2 1 2 1 2 1 Z " fill="#FFFFFF" transform="translate(375,20)"/>
  <path d="M0 0 C2 1 2 1 2 1 Z " fill="#FFFFFF" transform="translate(833,18)"/>
  <path d="M0 0 C2 1 2 1 2 1 Z " fill="#FFFFFF" transform="translate(386,18)"/>
  <path d="M0 0 C2 1 2 1 2 1 Z " fill="#FFFFFF" transform="translate(827,17)"/>
  <path d="M0 0 C2 1 2 1 2 1 Z " fill="#FFFFFF" transform="translate(392,17)"/>
  <path d="M0 0 C2 1 2 1 2 1 Z " fill="#FFFFFF" transform="translate(821,16)"/>
  <path d="M0 0 C2 1 2 1 2 1 Z " fill="#FFFFFF" transform="translate(398,16)"/>
  <path d="M0 0 C2 1 2 1 2 1 Z " fill="#FFFFFF" transform="translate(815,15)"/>
  <path d="M0 0 C2 1 2 1 2 1 Z " fill="#FFFFFF" transform="translate(404,15)"/>
  <path d="M0 0 C2 1 2 1 2 1 Z " fill="#FFFFFF" transform="translate(802,13)"/>
  <path d="M0 0 C2 1 2 1 2 1 Z " fill="#FFFFFF" transform="translate(417,13)"/>
  <path d="M0 0 C2 1 2 1 2 1 Z " fill="#FFFFFF" transform="translate(795,12)"/>
  <path d="M0 0 C2 1 2 1 2 1 Z " fill="#FFFFFF" transform="translate(424,12)"/>
  <path d="M0 0 C2 1 2 1 2 1 Z " fill="#FFFFFF" transform="translate(788,11)"/>
  <path d="M0 0 C2 1 2 1 2 1 Z " fill="#FFFFFF" transform="translate(431,11)"/>
  <path d="M0 0 C2 1 2 1 2 1 Z " fill="#FFFFFF" transform="translate(780,10)"/>
  <path d="M0 0 C2 1 2 1 2 1 Z " fill="#FFFFFF" transform="translate(439,10)"/>
  <path d="M0 0 C2 1 2 1 2 1 Z " fill="#FFFFFF" transform="translate(772,9)"/>
  <path d="M0 0 C2 1 2 1 2 1 Z " fill="#FFFFFF" transform="translate(447,9)"/>
  <path d="M0 0 C2 1 2 1 2 1 Z " fill="#FFFFFF" transform="translate(764,8)"/>
  <path d="M0 0 C2 1 2 1 2 1 Z " fill="#FFFFFF" transform="translate(455,8)"/>
  <path d="M0 0 C2 1 2 1 2 1 Z " fill="#FFFFFF" transform="translate(755,7)"/>
  <path d="M0 0 C2 1 2 1 2 1 Z " fill="#FFFFFF" transform="translate(464,7)"/>
  <path d="" fill="#FFFFFF" transform="translate(0,0)"/>
  <path d="" fill="#FFFFFF" transform="translate(0,0)"/>
  <path d="" fill="#FFFFFF" transform="translate(0,0)"/>
  <path d="" fill="#FFFFFF" transform="translate(0,0)"/>
  <path d="" fill="#FFFFFF" transform="translate(0,0)"/>
  <path d="" fill="#FFFFFF" transform="translate(0,0)"/>
  <path d="" fill="#FFFFFF" transform="translate(0,0)"/>
  <path d="" fill="#FFFFFF" transform="translate(0,0)"/>
  <path d="" fill="#FFFFFF" transform="translate(0,0)"/>
  <path d="" fill="#FFFFFF" transform="translate(0,0)"/>
  <path d="" fill="#FFFFFF" transform="translate(0,0)"/>
  <path d="" fill="#FFFFFF" transform="translate(0,0)"/>
  <path d="" fill="#FFFFFF" transform="translate(0,0)"/>
  <path d="" fill="#FFFFFF" transform="translate(0,0)"/>
  <path d="" fill="#FFFFFF" transform="translate(0,0)"/>
  <path d="" fill="#FFFFFF" transform="translate(0,0)"/>
  <path d="" fill="#FFFFFF" transform="translate(0,0)"/>
  <path d="" fill="#FFFFFF" transform="translate(0,0)"/>
  <path d="" fill="#FFFFFF" transform="translate(0,0)"/>
  <path d="" fill="#FFFFFF" transform="translate(0,0)"/>
  <path d="" fill="#FFFFFF" transform="translate(0,0)"/>
  <path d="" fill="#FFFFFF" transform="translate(0,0)"/>
  <path d="" fill="#FFFFFF" transform="translate(0,0)"/>
  <path d="" fill="#FFFFFF" transform="translate(0,0)"/>
  <path d="" fill="#FFFFFF" transform="translate(0,0)"/>
  <path d="" fill="#FFFFFF" transform="translate(0,0)"/>
  <path d="" fill="#FFFFFF" transform="translate(0,0)"/>
  <path d="" fill="#FFFFFF" transform="translate(0,0)"/>
  <path d="" fill="#FFFFFF" transform="translate(0,0)"/>
  <path d="" fill="#FFFFFF" transform="translate(0,0)"/>
  <path d="" fill="#FFFFFF" transform="translate(0,0)"/>
  <path d="" fill="#FFFFFF" transform="translate(0,0)"/>
  <path d="" fill="#FFFFFF" transform="translate(0,0)"/>
  <path d="" fill="#FFFFFF" transform="translate(0,0)"/>
  <path d="" fill="#FFFFFF" transform="translate(0,0)"/>
  <path d="" fill="#FFFFFF" transform="translate(0,0)"/>
  <path d="" fill="#FFFFFF" transform="translate(0,0)"/>
  <path d="" fill="#FFFFFF" transform="translate(0,0)"/>
  <path d="" fill="#FFFFFF" transform="translate(0,0)"/>
  <path d="" fill="#FFFFFF" transform="translate(0,0)"/>
  <path d="" fill="#FFFFFF" transform="translate(0,0)"/>
  <path d="" fill="#FFFFFF" transform="translate(0,0)"/>
  <path d="" fill="#FFFFFF" transform="translate(0,0)"/>
  <path d="" fill="#FFFFFF" transform="translate(0,0)"/>
  <path d="" fill="#FFFFFF" transform="translate(0,0)"/>
  <path d="" fill="#FFFFFF" transform="translate(0,0)"/>
  <path d="" fill="#FFFFFF" transform="translate(0,0)"/>
  <path d="" fill="#FFFFFF" transform="translate(0,0)"/>
  <path d="" fill="#FFFFFF" transform="translate(0,0)"/>
  <path d="" fill="#FFFFFF" transform="translate(0,0)"/>
  <path d="" fill="#FFFFFF" transform="translate(0,0)"/>
  <path d="" fill="#FFFFFF" transform="translate(0,0)"/>
  <path d="" fill="#FFFFFF" transform="translate(0,0)"/>
  <path d="" fill="#FFFFFF" transform="translate(0,0)"/>
  <path d="" fill="#FFFFFF" transform="translate(0,0)"/>
  <path d="" fill="#FFFFFF" transform="translate(0,0)"/>
  <path d="" fill="#FFFFFF" transform="translate(0,0)"/>
  <path d="" fill="#FFFFFF" transform="translate(0,0)"/>
  <path d="" fill="#FFFFFF" transform="translate(0,0)"/>
  <path d="" fill="#FFFFFF" transform="translate(0,0)"/>
  <path d="" fill="#FFFFFF" transform="translate(0,0)"/>
  <path d="" fill="#FFFFFF" transform="translate(0,0)"/>
  <path d="" fill="#FFFFFF" transform="translate(0,0)"/>
  <path d="" fill="#FFFFFF" transform="translate(0,0)"/>
  <path d="" fill="#FFFFFF" transform="translate(0,0)"/>
  <path d="" fill="#FFFFFF" transform="translate(0,0)"/>
  <path d="" fill="#FFFFFF" transform="translate(0,0)"/>
  <path d="" fill="#FFFFFF" transform="translate(0,0)"/>
  <path d="" fill="#FFFFFF" transform="translate(0,0)"/>
  <path d="" fill="#FFFFFF" transform="translate(0,0)"/>
  <path d="" fill="#FFFFFF" transform="translate(0,0)"/>
  <path d="" fill="#FFFFFF" transform="translate(0,0)"/>
  <path d="" fill="#FFFFFF" transform="translate(0,0)"/>
  <path d="" fill="#FFFFFF" transform="translate(0,0)"/>
  <path d="" fill="#FFFFFF" transform="translate(0,0)"/>
  <path d="" fill="#FFFFFF" transform="translate(0,0)"/>
  <path d="" fill="#FFFFFF" transform="translate(0,0)"/>
  <path d="" fill="#FFFFFF" transform="translate(0,0)"/>
  <path d="" fill="#FFFFFF" transform="translate(0,0)"/>
  <path d="" fill="#FFFFFF" transform="translate(0,0)"/>
  <path d="" fill="#FFFFFF" transform="translate(0,0)"/>
  <path d="" fill="#FFFFFF" transform="translate(0,0)"/>
  <path d="" fill="#FFFFFF" transform="translate(0,0)"/>
  <path d="" fill="#FFFFFF" transform="translate(0,0)"/>
  <path d="" fill="#FFFFFF" transform="translate(0,0)"/>
  <path d="" fill="#FFFFFF" transform="translate(0,0)"/>
  <path d="" fill="#FFFFFF" transform="translate(0,0)"/>
  <path d="" fill="#FFFFFF" transform="translate(0,0)"/>
  <path d="" fill="#FFFFFF" transform="translate(0,0)"/>
  <path d="" fill="#FFFFFF" transform="translate(0,0)"/>
  <path d="" fill="#FFFFFF" transform="translate(0,0)"/>
  <path d="" fill="#FFFFFF" transform="translate(0,0)"/>
  <path d="" fill="#FFFFFF" transform="translate(0,0)"/>
  <path d="" fill="#FFFFFF" transform="translate(0,0)"/>
  <path d="" fill="#FFFFFF" transform="translate(0,0)"/>
  <path d="" fill="#FFFFFF" transform="translate(0,0)"/>
  <path d="" fill="#FFFFFF" transform="translate(0,0)"/>
  <path d="" fill="#FFFFFF" transform="translate(0,0)"/>
  <path d="" fill="#FFFFFF" transform="translate(0,0)"/>
  <path d="" fill="#FFFFFF" transform="translate(0,0)"/>
  <path d="" fill="#FFFFFF" transform="translate(0,0)"/>
  <path d="" fill="#FFFFFF" transform="translate(0,0)"/>
  <path d="" fill="#FFFFFF" transform="translate(0,0)"/>
  <path d="" fill="#FFFFFF" transform="translate(0,0)"/>
  <path d="" fill="#FFFFFF" transform="translate(0,0)"/>
  <path d="" fill="#FFFFFF" transform="translate(0,0)"/>
  <path d="" fill="#FFFFFF" transform="translate(0,0)"/>
  <path d="" fill="#FFFFFF" transform="translate(0,0)"/>
  <path d="" fill="#FFFFFF" transform="translate(0,0)"/>
  <path d="" fill="#FFFFFF" transform="translate(0,0)"/>
  <path d="" fill="#FFFFFF" transform="translate(0,0)"/>
  <path d="" fill="#FFFFFF" transform="translate(0,0)"/>
  <path d="" fill="#FFFFFF" transform="translate(0,0)"/>
  <path d="" fill="#FFFFFF" transform="translate(0,0)"/>
  <path d="" fill="#FFFFFF" transform="translate(0,0)"/>
  <path d="" fill="#FFFFFF" transform="translate(0,0)"/>
  <path d="" fill="#FFFFFF" transform="translate(0,0)"/>
  <path d="" fill="#FFFFFF" transform="translate(0,0)"/>
  <path d="" fill="#FFFFFF" transform="translate(0,0)"/>
  <path d="" fill="#FFFFFF" transform="translate(0,0)"/>
  <path d="" fill="#FFFFFF" transform="translate(0,0)"/>
  <path d="" fill="#FFFFFF" transform="translate(0,0)"/>
  <path d="" fill="#FFFFFF" transform="translate(0,0)"/>
  <path d="" fill="#FFFFFF" transform="translate(0,0)"/>
  <path d="" fill="#FFFFFF" transform="translate(0,0)"/>
  <path d="" fill="#FFFFFF" transform="translate(0,0)"/>
  <path d="" fill="#FFFFFF" transform="translate(0,0)"/>
  <path d="" fill="#FFFFFF" transform="translate(0,0)"/>
  <path d="" fill="#FFFFFF" transform="translate(0,0)"/>
  <path d="" fill="#FFFFFF" transform="translate(0,0)"/>
  <path d="" fill="#FFFFFF" transform="translate(0,0)"/>
  <path d="" fill="#FFFFFF" transform="translate(0,0)"/>
  <path d="" fill="#FFFFFF" transform="translate(0,0)"/>
  <path d="" fill="#FFFFFF" transform="translate(0,0)"/>
  <path d="" fill="#FFFFFF" transform="translate(0,0)"/>
  <path d="" fill="#FFFFFF" transform="translate(0,0)"/>
  <path d="" fill="#FFFFFF" transform="translate(0,0)"/>
  <path d="" fill="#FFFFFF" transform="translate(0,0)"/>
  <path d="" fill="#FFFFFF" transform="translate(0,0)"/>
  <path d="" fill="#FFFFFF" transform="translate(0,0)"/>
  <path d="" fill="#FFFFFF" transform="translate(0,0)"/>
  <path d="" fill="#FFFFFF" transform="translate(0,0)"/>
  <path d="" fill="#FFFFFF" transform="translate(0,0)"/>
  <path d="" fill="#FFFFFF" transform="translate(0,0)"/>
  <path d="" fill="#FFFFFF" transform="translate(0,0)"/>
  <path d="" fill="#FFFFFF" transform="translate(0,0)"/>
  <path d="" fill="#FFFFFF" transform="translate(0,0)"/>
  <path d="" fill="#FFFFFF" transform="translate(0,0)"/>
  <path d="" fill="#FFFFFF" transform="translate(0,0)"/>
  <path d="" fill="#FFFFFF" transform="translate(0,0)"/>
  <path d="" fill="#FFFFFF" transform="translate(0,0)"/>
  <path d="" fill="#FFFFFF" transform="translate(0,0)"/>
  <path d="" fill="#FFFFFF" transform="translate(0,0)"/>
  <path d="" fill="#FFFFFF" transform="translate(0,0)"/>
  <path d="" fill="#FFFFFF" transform="translate(0,0)"/>
  <path d="" fill="#FFFFFF" transform="translate(0,0)"/>
  <path d="" fill="#FFFFFF" transform="translate(0,0)"/>
  <path d="" fill="#FFFFFF" transform="translate(0,0)"/>
  <path d="" fill="#FFFFFF" transform="translate(0,0)"/>
  <path d="" fill="#FFFFFF" transform="translate(0,0)"/>
  <path d="" fill="#FFFFFF" transform="translate(0,0)"/>
  <path d="" fill="#FFFFFF" transform="translate(0,0)"/>
  <path d="" fill="#FFFFFF" transform="translate(0,0)"/>
  <path d="" fill="#FFFFFF" transform="translate(0,0)"/>
  <path d="" fill="#FFFFFF" transform="translate(0,0)"/>
  <path d="" fill="#FFFFFF" transform="translate(0,0)"/>
  <path d="" fill="#FFFFFF" transform="translate(0,0)"/>
  <path d="" fill="#FFFFFF" transform="translate(0,0)"/>
  <path d="" fill="#FFFFFF" transform="translate(0,0)"/>
  <path d="" fill="#FFFFFF" transform="translate(0,0)"/>
  <path d="" fill="#FFFFFF" transform="translate(0,0)"/>
  <path d="" fill="#FFFFFF" transform="translate(0,0)"/>
  <path d="" fill="#FFFFFF" transform="translate(0,0)"/>
  <path d="" fill="#FFFFFF" transform="translate(0,0)"/>
  <path d="" fill="#FFFFFF" transform="translate(0,0)"/>
  <path d="" fill="#FFFFFF" transform="translate(0,0)"/>
  <path d="" fill="#FFFFFF" transform="translate(0,0)"/>
  <path d="" fill="#FFFFFF" transform="translate(0,0)"/>
  <path d="" fill="#FFFFFF" transform="translate(0,0)"/>
  <path d="" fill="#FFFFFF" transform="translate(0,0)"/>
  <path d="" fill="#FFFFFF" transform="translate(0,0)"/>
  <path d="" fill="#FFFFFF" transform="translate(0,0)"/>
  <path d="" fill="#FFFFFF" transform="translate(0,0)"/>
  <path d="" fill="#FFFFFF" transform="translate(0,0)"/>
  <path d="" fill="#FFFFFF" transform="translate(0,0)"/>
  <path d="" fill="#FFFFFF" transform="translate(0,0)"/>
  <path d="" fill="#FFFFFF" transform="translate(0,0)"/>
  <path d="" fill="#FFFFFF" transform="translate(0,0)"/>
  <path d="" fill="#FFFFFF" transform="translate(0,0)"/>
  <path d="" fill="#FFFFFF" transform="translate(0,0)"/>
  <path d="" fill="#FFFFFF" transform="translate(0,0)"/>
  <path d="" fill="#FFFFFF" transform="translate(0,0)"/>
  <path d="" fill="#FFFFFF" transform="translate(0,0)"/>
  <path d="" fill="#FFFFFF" transform="translate(0,0)"/>
  <path d="" fill="#FFFFFF" transform="translate(0,0)"/>
  <path d="" fill="#FFFFFF" transform="translate(0,0)"/>
  <path d="" fill="#FFFFFF" transform="translate(0,0)"/>
  <path d="" fill="#FFFFFF" transform="translate(0,0)"/>
  <path d="" fill="#FFFFFF" transform="translate(0,0)"/>
  <path d="" fill="#FFFFFF" transform="translate(0,0)"/>
  <path d="" fill="#FFFFFF" transform="translate(0,0)"/>
  <path d="" fill="#FFFFFF" transform="translate(0,0)"/>
  <path d="" fill="#FFFFFF" transform="translate(0,0)"/>
  <path d="" fill="#FFFFFF" transform="translate(0,0)"/>
  <path d="" fill="#FFFFFF" transform="translate(0,0)"/>
  <path d="" fill="#FFFFFF" transform="translate(0,0)"/>
  <path d="" fill="#FFFFFF" transform="translate(0,0)"/>
  <path d="" fill="#FFFFFF" transform="translate(0,0)"/>
  <path d="" fill="#FFFFFF" transform="translate(0,0)"/>
  <path d="" fill="#FFFFFF" transform="translate(0,0)"/>
  <path d="" fill="#FFFFFF" transform="translate(0,0)"/>
  <path d="" fill="#FFFFFF" transform="translate(0,0)"/>
  <path d="" fill="#FFFFFF" transform="translate(0,0)"/>
  <path d="" fill="#FFFFFF" transform="translate(0,0)"/>
  <path d="" fill="#FFFFFF" transform="translate(0,0)"/>
  <path d="" fill="#FFFFFF" transform="translate(0,0)"/>
  <path d="" fill="#FFFFFF" transform="translate(0,0)"/>
  <path d="" fill="#FFFFFF" transform="translate(0,0)"/>
  <path d="" fill="#FFFFFF" transform="translate(0,0)"/>
  <path d="" fill="#FFFFFF" transform="translate(0,0)"/>
  <path d="" fill="#FFFFFF" transform="translate(0,0)"/>
  <path d="" fill="#FFFFFF" transform="translate(0,0)"/>
  <path d="" fill="#FFFFFF" transform="translate(0,0)"/>
  <path d="" fill="#FFFFFF" transform="translate(0,0)"/>
  <path d="" fill="#FFFFFF" transform="translate(0,0)"/>
  <path d="" fill="#FFFFFF" transform="translate(0,0)"/>
  <path d="" fill="#FFFFFF" transform="translate(0,0)"/>
  <path d="" fill="#FFFFFF" transform="translate(0,0)"/>
  <path d="" fill="#FFFFFF" transform="translate(0,0)"/>
  <path d="" fill="#FFFFFF" transform="translate(0,0)"/>
  <path d="" fill="#FFFFFF" transform="translate(0,0)"/>
  <path d="" fill="#FFFFFF" transform="translate(0,0)"/>
  <path d="" fill="#FFFFFF" transform="translate(0,0)"/>
  <path d="" fill="#FFFFFF" transform="translate(0,0)"/>
  <path d="" fill="#FFFFFF" transform="translate(0,0)"/>
  <path d="" fill="#FFFFFF" transform="translate(0,0)"/>
  <path d="" fill="#FFFFFF" transform="translate(0,0)"/>
  <path d="" fill="#FFFFFF" transform="translate(0,0)"/>
  <path d="" fill="#FFFFFF" transform="translate(0,0)"/>
  <path d="" fill="#FFFFFF" transform="translate(0,0)"/>
  <path d="" fill="#FFFFFF" transform="translate(0,0)"/>
  <path d="" fill="#FFFFFF" transform="translate(0,0)"/>
  <path d="" fill="#FFFFFF" transform="translate(0,0)"/>
  <path d="" fill="#FFFFFF" transform="translate(0,0)"/>
  <path d="" fill="#FFFFFF" transform="translate(0,0)"/>
  <path d="" fill="#FFFFFF" transform="translate(0,0)"/>
  <path d="" fill="#FFFFFF" transform="translate(0,0)"/>
  <path d="" fill="#FFFFFF" transform="translate(0,0)"/>
  <path d="" fill="#FFFFFF" transform="translate(0,0)"/>
  <path d="" fill="#FFFFFF" transform="translate(0,0)"/>
  <path d="" fill="#FFFFFF" transform="translate(0,0)"/>
  <path d="" fill="#FFFFFF" transform="translate(0,0)"/>
  <path d="" fill="#FFFFFF" transform="translate(0,0)"/>
  <path d="" fill="#FFFFFF" transform="translate(0,0)"/>
  <path d="" fill="#FFFFFF" transform="translate(0,0)"/>
  <path d="" fill="#FFFFFF" transform="translate(0,0)"/>
  <path d="" fill="#FFFFFF" transform="translate(0,0)"/>
  <path d="" fill="#FFFFFF" transform="translate(0,0)"/>
  <path d="" fill="#FFFFFF" transform="translate(0,0)"/>
  <path d="" fill="#FFFFFF" transform="translate(0,0)"/>
  <path d="" fill="#FFFFFF" transform="translate(0,0)"/>
  <path d="" fill="#FFFFFF" transform="translate(0,0)"/>
  <path d="" fill="#FFFFFF" transform="translate(0,0)"/>
  <path d="" fill="#FFFFFF" transform="translate(0,0)"/>
  <path d="" fill="#FFFFFF" transform="translate(0,0)"/>
  <path d="" fill="#FFFFFF" transform="translate(0,0)"/>
  <path d="" fill="#FFFFFF" transform="translate(0,0)"/>
  <path d="" fill="#FFFFFF" transform="translate(0,0)"/>
  <path d="" fill="#FFFFFF" transform="translate(0,0)"/>
  <path d="" fill="#FFFFFF" transform="translate(0,0)"/>
  <path d="" fill="#FFFFFF" transform="translate(0,0)"/>
  <path d="" fill="#FFFFFF" transform="translate(0,0)"/>
  <path d="" fill="#FFFFFF" transform="translate(0,0)"/>
  <path d="" fill="#FFFFFF" transform="translate(0,0)"/>
  <path d="" fill="#FFFFFF" transform="translate(0,0)"/>
  <path d="" fill="#FFFFFF" transform="translate(0,0)"/>
  <path d="" fill="#FFFFFF" transform="translate(0,0)"/>
  <path d="" fill="#FFFFFF" transform="translate(0,0)"/>
  <path d="" fill="#FFFFFF" transform="translate(0,0)"/>
  <path d="" fill="#FFFFFF" transform="translate(0,0)"/>
  <path d="" fill="#FFFFFF" transform="translate(0,0)"/>
  <path d="" fill="#FFFFFF" transform="translate(0,0)"/>
  <path d="" fill="#FFFFFF" transform="translate(0,0)"/>
  <path d="" fill="#FFFFFF" transform="translate(0,0)"/>
  <path d="" fill="#FFFFFF" transform="translate(0,0)"/>
  <path d="" fill="#FFFFFF" transform="translate(0,0)"/>
  <path d="" fill="#FFFFFF" transform="translate(0,0)"/>
  <path d="" fill="#FFFFFF" transform="translate(0,0)"/>
  <path d="" fill="#FFFFFF" transform="translate(0,0)"/>
  <path d="" fill="#FFFFFF" transform="translate(0,0)"/>
  <path d="" fill="#FFFFFF" transform="translate(0,0)"/>
  <path d="" fill="#FFFFFF" transform="translate(0,0)"/>
  <path d="" fill="#FFFFFF" transform="translate(0,0)"/>
  <path d="" fill="#FFFFFF" transform="translate(0,0)"/>
  <path d="" fill="#FFFFFF" transform="translate(0,0)"/>
  <path d="" fill="#FFFFFF" transform="translate(0,0)"/>
  <path d="" fill="#FFFFFF" transform="translate(0,0)"/>
  <path d="" fill="#FFFFFF" transform="translate(0,0)"/>
  <path d="" fill="#FFFFFF" transform="translate(0,0)"/>
  <path d="" fill="#FFFFFF" transform="translate(0,0)"/>
  <path d="" fill="#FFFFFF" transform="translate(0,0)"/>
  <path d="" fill="#FFFFFF" transform="translate(0,0)"/>
  <path d="" fill="#FFFFFF" transform="translate(0,0)"/>
  <path d="" fill="#FFFFFF" transform="translate(0,0)"/>
  <path d="" fill="#FFFFFF" transform="translate(0,0)"/>
  <path d="" fill="#FFFFFF" transform="translate(0,0)"/>
  <path d="" fill="#FFFFFF" transform="translate(0,0)"/>
  <path d="" fill="#FFFFFF" transform="translate(0,0)"/>
  <path d="" fill="#FFFFFF" transform="translate(0,0)"/>
  <path d="" fill="#FFFFFF" transform="translate(0,0)"/>
  <path d="" fill="#FFFFFF" transform="translate(0,0)"/>
  <path d="" fill="#FFFFFF" transform="translate(0,0)"/>
  <path d="" fill="#FFFFFF" transform="translate(0,0)"/>
  <path d="" fill="#FFFFFF" transform="translate(0,0)"/>
  <path d="" fill="#FFFFFF" transform="translate(0,0)"/>
  <path d="" fill="#FFFFFF" transform="translate(0,0)"/>
  <path d="" fill="#FFFFFF" transform="translate(0,0)"/>
  <path d="" fill="#FFFFFF" transform="translate(0,0)"/>
  <path d="" fill="#FFFFFF" transform="translate(0,0)"/>
  <path d="" fill="#FFFFFF" transform="translate(0,0)"/>
  <path d="" fill="#FFFFFF" transform="translate(0,0)"/>
  <path d="" fill="#FFFFFF" transform="translate(0,0)"/>
  <path d="" fill="#FFFFFF" transform="translate(0,0)"/>
  <path d="" fill="#FFFFFF" transform="translate(0,0)"/>
  <path d="" fill="#FFFFFF" transform="translate(0,0)"/>
  <path d="" fill="#FFFFFF" transform="translate(0,0)"/>
  <path d="" fill="#FFFFFF" transform="translate(0,0)"/>
  <path d="" fill="#FFFFFF" transform="translate(0,0)"/>
  <path d="" fill="#FFFFFF" transform="translate(0,0)"/>
  <path d="" fill="#FFFFFF" transform="translate(0,0)"/>
  <path d="" fill="#FFFFFF" transform="translate(0,0)"/>
  <path d="" fill="#FFFFFF" transform="translate(0,0)"/>
  <path d="" fill="#FFFFFF" transform="translate(0,0)"/>
  <path d="" fill="#FFFFFF" transform="translate(0,0)"/>
  <path d="" fill="#FFFFFF" transform="translate(0,0)"/>
  <path d="" fill="#FFFFFF" transform="translate(0,0)"/>
  <path d="" fill="#FFFFFF" transform="translate(0,0)"/>
  <path d="" fill="#FFFFFF" transform="translate(0,0)"/>
  <path d="" fill="#FFFFFF" transform="translate(0,0)"/>
  <path d="" fill="#FFFFFF" transform="translate(0,0)"/>
  <path d="" fill="#FFFFFF" transform="translate(0,0)"/>
  <path d="" fill="#FFFFFF" transform="translate(0,0)"/>
  <path d="" fill="#FFFFFF" transform="translate(0,0)"/>
  <path d="" fill="#FFFFFF" transform="translate(0,0)"/>
  <path d="" fill="#FFFFFF" transform="translate(0,0)"/>
  <path d="" fill="#FFFFFF" transform="translate(0,0)"/>
  <path d="" fill="#FFFFFF" transform="translate(0,0)"/>
  <path d="" fill="#FFFFFF" transform="translate(0,0)"/>
  <path d="" fill="#FFFFFF" transform="translate(0,0)"/>
  <path d="" fill="#FFFFFF" transform="translate(0,0)"/>
  <path d="" fill="#FFFFFF" transform="translate(0,0)"/>
  <path d="" fill="#FFFFFF" transform="translate(0,0)"/>
  <path d="" fill="#FFFFFF" transform="translate(0,0)"/>
  <path d="" fill="#FFFFFF" transform="translate(0,0)"/>
  <path d="" fill="#FFFFFF" transform="translate(0,0)"/>
  <path d="" fill="#FFFFFF" transform="translate(0,0)"/>
  <path d="" fill="#FFFFFF" transform="translate(0,0)"/>
  <path d="" fill="#FFFFFF" transform="translate(0,0)"/>
  <path d="" fill="#FFFFFF" transform="translate(0,0)"/>
  <path d="" fill="#FFFFFF" transform="translate(0,0)"/>
  <path d="" fill="#FFFFFF" transform="translate(0,0)"/>
  <path d="" fill="#FFFFFF" transform="translate(0,0)"/>
  <path d="" fill="#FFFFFF" transform="translate(0,0)"/>
  <path d="" fill="#FFFFFF" transform="translate(0,0)"/>
  <path d="" fill="#FFFFFF" transform="translate(0,0)"/>
  <path d="" fill="#FFFFFF" transform="translate(0,0)"/>
  <path d="" fill="#FFFFFF" transform="translate(0,0)"/>
  <path d="" fill="#FFFFFF" transform="translate(0,0)"/>
  <path d="" fill="#FFFFFF" transform="translate(0,0)"/>
  <path d="" fill="#FFFFFF" transform="translate(0,0)"/>
  <path d="" fill="#FFFFFF" transform="translate(0,0)"/>
  <path d="" fill="#FFFFFF" transform="translate(0,0)"/>
  <path d="" fill="#FFFFFF" transform="translate(0,0)"/>
  <path d="" fill="#FFFFFF" transform="translate(0,0)"/>
  <path d="" fill="#FFFFFF" transform="translate(0,0)"/>
  <path d="" fill="#FFFFFF" transform="translate(0,0)"/>
  <path d="" fill="#FFFFFF" transform="translate(0,0)"/>
  <path d="" fill="#FFFFFF" transform="translate(0,0)"/>
  <path d="" fill="#FFFFFF" transform="translate(0,0)"/>
  <path d="" fill="#FFFFFF" transform="translate(0,0)"/>
  <path d="" fill="#FFFFFF" transform="translate(0,0)"/>
  <path d="" fill="#FFFFFF" transform="translate(0,0)"/>
  <path d="" fill="#FFFFFF" transform="translate(0,0)"/>
  <path d="" fill="#FFFFFF" transform="translate(0,0)"/>
  <path d="" fill="#FFFFFF" transform="translate(0,0)"/>
  <path d="" fill="#FFFFFF" transform="translate(0,0)"/>
  <path d="" fill="#FFFFFF" transform="translate(0,0)"/>
  <path d="" fill="#FFFFFF" transform="translate(0,0)"/>
  <path d="" fill="#FFFFFF" transform="translate(0,0)"/>
  <path d="" fill="#FFFFFF" transform="translate(0,0)"/>
  <path d="" fill="#FFFFFF" transform="translate(0,0)"/>
  <path d="" fill="#FFFFFF" transform="translate(0,0)"/>
  <path d="" fill="#FFFFFF" transform="translate(0,0)"/>
  <path d="" fill="#FFFFFF" transform="translate(0,0)"/>
  <path d="" fill="#FFFFFF" transform="translate(0,0)"/>
  <path d="" fill="#FFFFFF" transform="translate(0,0)"/>
  <path d="" fill="#FFFFFF" transform="translate(0,0)"/>
  <path d="" fill="#FFFFFF" transform="translate(0,0)"/>
  <path d="" fill="#FFFFFF" transform="translate(0,0)"/>
  <path d="" fill="#FFFFFF" transform="translate(0,0)"/>
  <path d="" fill="#FFFFFF" transform="translate(0,0)"/>
  <path d="" fill="#FFFFFF" transform="translate(0,0)"/>
  <path d="" fill="#FFFFFF" transform="translate(0,0)"/>
  <path d="" fill="#FFFFFF" transform="translate(0,0)"/>
  <path d="" fill="#FFFFFF" transform="translate(0,0)"/>
  <path d="" fill="#FFFFFF" transform="translate(0,0)"/>
  <path d="" fill="#FFFFFF" transform="translate(0,0)"/>
  <path d="" fill="#FFFFFF" transform="translate(0,0)"/>
  <path d="" fill="#FFFFFF" transform="translate(0,0)"/>
  <path d="" fill="#FFFFFF" transform="translate(0,0)"/>
  <path d="" fill="#FFFFFF" transform="translate(0,0)"/>
  <path d="" fill="#FFFFFF" transform="translate(0,0)"/>
  <path d="" fill="#FFFFFF" transform="translate(0,0)"/>
  <path d="" fill="#FFFFFF" transform="translate(0,0)"/>
  <path d="" fill="#FFFFFF" transform="translate(0,0)"/>
  <path d="" fill="#FFFFFF" transform="translate(0,0)"/>
  <path d="" fill="#FFFFFF" transform="translate(0,0)"/>
  <path d="" fill="#FFFFFF" transform="translate(0,0)"/>
  <path d="" fill="#FFFFFF" transform="translate(0,0)"/>
  <path d="" fill="#FFFFFF" transform="translate(0,0)"/>
  <path d="" fill="#FFFFFF" transform="translate(0,0)"/>
  <path d="" fill="#FFFFFF" transform="translate(0,0)"/>
  <path d="" fill="#FFFFFF" transform="translate(0,0)"/>
  <path d="" fill="#FFFFFF" transform="translate(0,0)"/>
  <path d="" fill="#FFFFFF" transform="translate(0,0)"/>
  <path d="" fill="#FFFFFF" transform="translate(0,0)"/>
  <path d="" fill="#FFFFFF" transform="translate(0,0)"/>
  <path d="" fill="#FFFFFF" transform="translate(0,0)"/>
  <path d="" fill="#FFFFFF" transform="translate(0,0)"/>
  <path d="" fill="#FFFFFF" transform="translate(0,0)"/>
  <path d="" fill="#FFFFFF" transform="translate(0,0)"/>
  <path d="" fill="#FFFFFF" transform="translate(0,0)"/>
  <path d="" fill="#FFFFFF" transform="translate(0,0)"/>
  <path d="" fill="#FFFFFF" transform="translate(0,0)"/>
  <path d="" fill="#FFFFFF" transform="translate(0,0)"/>
  <path d="" fill="#FFFFFF" transform="translate(0,0)"/>
  <path d="" fill="#FFFFFF" transform="translate(0,0)"/>
  <path d="" fill="#FFFFFF" transform="translate(0,0)"/>
  <path d="" fill="#FFFFFF" transform="translate(0,0)"/>
  <path d="" fill="#FFFFFF" transform="translate(0,0)"/>
  <path d="" fill="#FFFFFF" transform="translate(0,0)"/>
  <path d="" fill="#FFFFFF" transform="translate(0,0)"/>
  <path d="" fill="#FFFFFF" transform="translate(0,0)"/>
  <path d="" fill="#FFFFFF" transform="translate(0,0)"/>
  <path d="" fill="#FFFFFF" transform="translate(0,0)"/>
  <path d="" fill="#FFFFFF" transform="translate(0,0)"/>
  <path d="" fill="#FFFFFF" transform="translate(0,0)"/>
  <path d="" fill="#FFFFFF" transform="translate(0,0)"/>
  <path d="" fill="#FFFFFF" transform="translate(0,0)"/>
  <path d="" fill="#FFFFFF" transform="translate(0,0)"/>
  <path d="" fill="#FFFFFF" transform="translate(0,0)"/>
  <path d="" fill="#FFFFFF" transform="translate(0,0)"/>
  <path d="" fill="#FFFFFF" transform="translate(0,0)"/>
  <path d="" fill="#FFFFFF" transform="translate(0,0)"/>
  <path d="" fill="#FFFFFF" transform="translate(0,0)"/>
  <path d="" fill="#FFFFFF" transform="translate(0,0)"/>
  <path d="" fill="#FFFFFF" transform="translate(0,0)"/>
  <path d="" fill="#FFFFFF" transform="translate(0,0)"/>
  <path d="" fill="#FFFFFF" transform="translate(0,0)"/>
  <path d="" fill="#FFFFFF" transform="translate(0,0)"/>
  <path d="" fill="#FFFFFF" transform="translate(0,0)"/>
  <path d="" fill="#FFFFFF" transform="translate(0,0)"/>
  <path d="" fill="#FFFFFF" transform="translate(0,0)"/>
  <path d="" fill="#FFFFFF" transform="translate(0,0)"/>
  <path d="" fill="#FFFFFF" transform="translate(0,0)"/>
  <path d="" fill="#FFFFFF" transform="translate(0,0)"/>
  <path d="" fill="#FFFFFF" transform="translate(0,0)"/>
  <path d="" fill="#FFFFFF" transform="translate(0,0)"/>
  <path d="" fill="#FFFFFF" transform="translate(0,0)"/>
  <path d="" fill="#FFFFFF" transform="translate(0,0)"/>
  <path d="" fill="#FFFFFF" transform="translate(0,0)"/>
  <path d="" fill="#FFFFFF" transform="translate(0,0)"/>
  <path d="" fill="#FFFFFF" transform="translate(0,0)"/>
  <path d="" fill="#FFFFFF" transform="translate(0,0)"/>
  <path d="" fill="#FFFFFF" transform="translate(0,0)"/>
  <path d="" fill="#FFFFFF" transform="translate(0,0)"/>
  <path d="" fill="#FFFFFF" transform="translate(0,0)"/>
  <path d="" fill="#FFFFFF" transform="translate(0,0)"/>
  <path d="" fill="#FFFFFF" transform="translate(0,0)"/>
  <path d="" fill="#FFFFFF" transform="translate(0,0)"/>
  <path d="" fill="#FFFFFF" transform="translate(0,0)"/>
  <path d="" fill="#FFFFFF" transform="translate(0,0)"/>
  <path d="" fill="#FFFFFF" transform="translate(0,0)"/>
  <path d="" fill="#FFFFFF" transform="translate(0,0)"/>
  <path d="" fill="#FFFFFF" transform="translate(0,0)"/>
  <path d="" fill="#FFFFFF" transform="translate(0,0)"/>
  <path d="" fill="#FFFFFF" transform="translate(0,0)"/>
  <path d="" fill="#FFFFFF" transform="translate(0,0)"/>
  <path d="" fill="#FFFFFF" transform="translate(0,0)"/>
  <path d="" fill="#FFFFFF" transform="translate(0,0)"/>
  <path d="" fill="#FFFFFF" transform="translate(0,0)"/>
  <path d="" fill="#FFFFFF" transform="translate(0,0)"/>
  <path d="" fill="#FFFFFF" transform="translate(0,0)"/>
  <path d="" fill="#FFFFFF" transform="translate(0,0)"/>
  <path d="" fill="#FFFFFF" transform="translate(0,0)"/>
  <path d="" fill="#FFFFFF" transform="translate(0,0)"/>
  <path d="" fill="#FFFFFF" transform="translate(0,0)"/>
  <path d="" fill="#FFFFFF" transform="translate(0,0)"/>
  <path d="" fill="#FFFFFF" transform="translate(0,0)"/>
  <path d="" fill="#FFFFFF" transform="translate(0,0)"/>
  <path d="" fill="#FFFFFF" transform="translate(0,0)"/>
  <path d="" fill="#FFFFFF" transform="translate(0,0)"/>
  <path d="" fill="#FFFFFF" transform="translate(0,0)"/>
  <path d="" fill="#FFFFFF" transform="translate(0,0)"/>
  <path d="" fill="#FFFFFF" transform="translate(0,0)"/>
  <path d="" fill="#FFFFFF" transform="translate(0,0)"/>
  <path d="" fill="#FFFFFF" transform="translate(0,0)"/>
  <path d="" fill="#FFFFFF" transform="translate(0,0)"/>
  <path d="" fill="#FFFFFF" transform="translate(0,0)"/>
  <path d="" fill="#FFFFFF" transform="translate(0,0)"/>
  <path d="" fill="#FFFFFF" transform="translate(0,0)"/>
  <path d="" fill="#FFFFFF" transform="translate(0,0)"/>
  <path d="" fill="#FFFFFF" transform="translate(0,0)"/>
  <path d="" fill="#FFFFFF" transform="translate(0,0)"/>
  <path d="" fill="#FFFFFF" transform="translate(0,0)"/>
  <path d="" fill="#FFFFFF" transform="translate(0,0)"/>
  <path d="" fill="#FFFFFF" transform="translate(0,0)"/>
  <path d="" fill="#FFFFFF" transform="translate(0,0)"/>
  <path d="" fill="#FFFFFF" transform="translate(0,0)"/>
  <path d="" fill="#FFFFFF" transform="translate(0,0)"/>
  <path d="" fill="#FFFFFF" transform="translate(0,0)"/>
  <path d="" fill="#FFFFFF" transform="translate(0,0)"/>
  <path d="" fill="#FFFFFF" transform="translate(0,0)"/>
  <path d="" fill="#FFFFFF" transform="translate(0,0)"/>
  <path d="" fill="#FFFFFF" transform="translate(0,0)"/>
  <path d="" fill="#FFFFFF" transform="translate(0,0)"/>
  <path d="" fill="#FFFFFF" transform="translate(0,0)"/>
  <path d="" fill="#FFFFFF" transform="translate(0,0)"/>
  <path d="" fill="#FFFFFF" transform="translate(0,0)"/>
  <path d="" fill="#FFFFFF" transform="translate(0,0)"/>
  <path d="" fill="#FFFFFF" transform="translate(0,0)"/>
  <path d="" fill="#FFFFFF" transform="translate(0,0)"/>
  <path d="" fill="#FFFFFF" transform="translate(0,0)"/>
  <path d="" fill="#FFFFFF" transform="translate(0,0)"/>
  <path d="" fill="#FFFFFF" transform="translate(0,0)"/>
  <path d="" fill="#FFFFFF" transform="translate(0,0)"/>
  <path d="" fill="#FFFFFF" transform="translate(0,0)"/>
  <path d="" fill="#FFFFFF" transform="translate(0,0)"/>
  <path d="" fill="#FFFFFF" transform="translate(0,0)"/>
  <path d="" fill="#FFFFFF" transform="translate(0,0)"/>
  <path d="" fill="#FFFFFF" transform="translate(0,0)"/>
  <path d="" fill="#FFFFFF" transform="translate(0,0)"/>
  <path d="" fill="#FFFFFF" transform="translate(0,0)"/>
  <path d="" fill="#FFFFFF" transform="translate(0,0)"/>
  <path d="" fill="#FFFFFF" transform="translate(0,0)"/>
  <path d="" fill="#FFFFFF" transform="translate(0,0)"/>
  <path d="" fill="#FFFFFF" transform="translate(0,0)"/>
  <path d="" fill="#FFFFFF" transform="translate(0,0)"/>
  <path d="" fill="#FFFFFF" transform="translate(0,0)"/>
  <path d="" fill="#FFFFFF" transform="translate(0,0)"/>
  <path d="" fill="#FFFFFF" transform="translate(0,0)"/>
  <path d="" fill="#FFFFFF" transform="translate(0,0)"/>
  <path d="" fill="#FFFFFF" transform="translate(0,0)"/>
  <path d="" fill="#FFFFFF" transform="translate(0,0)"/>
  <path d="" fill="#FFFFFF" transform="translate(0,0)"/>
  <path d="" fill="#FFFFFF" transform="translate(0,0)"/>
  <path d="" fill="#FFFFFF" transform="translate(0,0)"/>
  <path d="" fill="#FFFFFF" transform="translate(0,0)"/>
  <path d="" fill="#FFFFFF" transform="translate(0,0)"/>
  <path d="" fill="#FFFFFF" transform="translate(0,0)"/>
</svg>